<svg width="892" height="388" viewBox="0 0 892 388" fill="none" xmlns="http://www.w3.org/2000/svg">
<path d="M61.93 35.0472V1.71661e-05H226.965V35.0472H165.445V201.055H123.45V35.0472H61.93Z" fill="#690375"/>
<path d="M237.708 201.055V50.2637H278.231V76.5736H279.801C282.548 67.2146 287.16 60.1463 293.636 55.3686C300.111 50.5255 307.568 48.104 316.007 48.104C318.1 48.104 320.357 48.2349 322.777 48.4966C325.197 48.7584 327.323 49.1184 329.154 49.5765V86.6853C327.192 86.0963 324.477 85.5727 321.011 85.1145C317.544 84.6564 314.371 84.4273 311.493 84.4273C305.344 84.4273 299.85 85.769 295.009 88.4524C290.234 91.0703 286.44 94.7353 283.628 99.4476C280.88 104.16 279.507 109.592 279.507 115.744V201.055H237.708Z" fill="#690375"/>
<path d="M447.411 136.851V50.2637H489.209V201.055H449.079V173.665H447.509C444.108 182.5 438.45 189.602 430.535 194.968C422.685 200.335 413.103 203.018 401.786 203.018C391.713 203.018 382.85 200.728 375.196 196.146C367.543 191.565 361.558 185.053 357.241 176.61C352.989 168.167 350.83 158.056 350.765 146.275V50.2637H392.563V138.814C392.629 147.715 395.016 154.751 399.726 159.921C404.435 165.091 410.748 167.677 418.663 167.677C423.699 167.677 428.409 166.531 432.792 164.241C437.174 161.885 440.706 158.416 443.388 153.834C446.136 149.253 447.477 143.592 447.411 136.851Z" fill="#690375"/>
<path d="M591.326 204C575.823 204 562.479 200.859 551.294 194.576C540.174 188.227 531.605 179.261 525.587 167.677C519.569 156.027 516.56 142.25 516.56 126.346C516.56 110.835 519.569 97.2223 525.587 85.5072C531.605 73.7921 540.075 64.6622 550.999 58.1174C561.988 51.5727 574.875 48.3003 589.658 48.3003C599.6 48.3003 608.856 49.9038 617.425 53.1107C626.06 56.2522 633.582 60.9971 639.992 67.3455C646.468 73.6939 651.505 81.6785 655.103 91.2993C658.7 100.855 660.499 112.046 660.499 124.874V136.36H533.24V110.443H621.154C621.154 104.422 619.845 99.0876 617.229 94.4408C614.612 89.794 610.982 86.1617 606.338 83.5438C601.759 80.8605 596.428 79.5188 590.345 79.5188C584 79.5188 578.374 80.9914 573.468 83.9365C568.628 86.8162 564.834 90.7103 562.087 95.6189C559.339 100.462 557.933 105.861 557.868 111.817V136.458C557.868 143.919 559.241 150.366 561.988 155.798C564.801 161.23 568.759 165.419 573.861 168.364C578.963 171.309 585.013 172.782 592.013 172.782C596.657 172.782 600.909 172.127 604.768 170.818C608.627 169.509 611.931 167.546 614.678 164.928C617.425 162.31 619.518 159.103 620.957 155.307L659.616 157.859C657.654 167.153 653.631 175.269 647.547 182.206C641.53 189.078 633.745 194.445 624.195 198.306C614.711 202.102 603.754 204 591.326 204Z" fill="#690375"/>
<path d="M725.649 157.663L725.747 107.498H731.831L780.105 50.2637H828.085L763.229 126.052H753.319L725.649 157.663ZM687.776 201.055V1.71661e-05H729.574V201.055H687.776ZM781.969 201.055L737.62 135.378L765.485 105.829L830.93 201.055H781.969Z" fill="#690375"/>
<g clip-path="url(#clip0_4_4425)">
<path d="M891.84 302.99C891.43 302.15 890.56 301.89 889.71 302.16C888.61 302.52 887.56 303.03 886.48 303.48C866.69 311.8 846.35 318.13 825.01 321.26C809.2 323.59 793.36 325.03 777.38 325.06C768.39 325.07 759.39 324.97 750.39 324.91C749.23 324.91 748.05 324.94 746.9 324.81C737.66 323.75 728.35 323.6 719.15 322.14C710.96 320.85 702.74 319.77 694.55 318.49C685.55 317.08 676.57 315.47 667.56 314.09C659.04 312.78 650.46 311.85 641.91 310.72C630.02 309.16 618.07 308.91 606.14 308.31C595.34 307.77 584.55 308.73 573.8 309.92C563.03 311.11 552.58 313.54 542.46 317.43C531.9 321.49 521.79 326.52 511.61 331.42C508.92 332.72 506.17 333.93 503.55 335.36C501.93 336.24 500.79 336.12 499.75 334.57C497.88 331.79 495.38 329.56 493 327.24C488.11 322.47 483.08 317.85 478.23 313.05C474.92 309.78 471.96 306.14 468.57 302.96C462.64 297.37 456.46 292.06 449.16 288.23C445.78 286.46 442.3 285.73 438.57 286.25C435.13 286.72 431.71 287.48 428.26 287.81C424.5 288.16 421.23 289.66 417.95 291.31C414.09 293.25 410.27 295.28 406.32 297.02C402.21 298.84 397.95 300.24 393.35 300.13C390.71 300.07 388.47 299.09 386.64 297.27C384.41 295.04 384.34 294.12 386.91 292.13C394.47 286.29 400.63 279.04 407.37 272.36C408.2 271.54 409.05 270.75 409.87 269.91C411.76 267.97 413.92 266.57 416.6 265.86C420.29 264.89 423.91 263.69 427.56 262.58C434.39 260.5 441.39 259.11 448.44 258.15C454.74 257.3 461.05 257.89 467.2 259.7C467.8 259.88 468.56 260.13 469.07 259.53C469.72 258.77 469.29 257.98 468.88 257.27C466.73 253.48 463.74 250.86 459.32 249.94C457.02 249.47 454.73 249.25 452.41 249.07C446.13 248.56 439.86 247.86 433.57 247.39C425.42 246.79 417.28 246.49 409.43 249.49C405.86 250.86 402.26 252.12 398.66 253.37C395.06 254.63 391.51 256.2 387.8 256.96C378.48 258.84 369 259.28 359.53 258.72C357.06 258.57 354.57 258.24 352.08 258.21C342.93 258.09 333.86 256.81 324.79 255.77C314.76 254.63 304.82 252.67 294.81 251.21C280.87 249.18 266.97 246.87 253.03 244.81C238.72 242.7 224.37 241.33 209.97 240.35C196.67 239.44 183.35 240.47 170.07 241.37C162.64 241.88 155.25 243.07 147.85 244.03C139.63 245.1 131.4 246.15 123.21 247.42C114.37 248.8 105.61 250.76 96.75 251.89C85.56 253.31 74.44 255.16 63.21 256.36C49.15 257.86 35.11 259.12 20.97 259.08C15.8 259.07 10.64 258.99 5.46999 258.95C4.30999 258.95 3.13999 258.93 1.99999 259.07C1.61999 259.11 1.11999 259.58 0.989987 259.96C0.719987 260.74 1.36999 261.32 1.94999 261.47C3.04999 261.76 4.22999 261.86 5.36999 261.88C11.2 261.96 17.04 261.9 22.87 262.06C32.04 262.32 41.16 261.42 50.27 260.79C59.2 260.18 68.1 258.97 76.98 257.84C83.89 256.97 90.77 255.88 97.64 254.79C107.46 253.24 117.25 251.58 127.06 249.99C134.59 248.76 142.14 247.69 149.72 246.76C159.44 245.58 169.14 244.25 178.94 243.93C180.44 243.88 181.96 243.97 183.43 243.76C191.89 242.55 200.41 242.84 208.86 243.34C221.44 244.09 234.02 244.99 246.51 246.93C254.53 248.18 262.62 249.06 270.65 250.31C281.94 252.08 293.18 254.21 304.5 255.88C316.14 257.59 327.79 259.31 339.55 260.25C349.99 261.08 360.42 262.19 370.9 261.79C379.19 261.48 387.47 260.86 395.36 257.88C399.7 256.24 404.05 254.58 408.43 253.04C414.1 251.04 419.86 249.56 425.97 250.03C435.57 250.76 445.19 251.36 454.78 252.21C457.38 252.44 460.08 252.88 462.33 254.5C462.58 254.68 462.88 255.03 462.88 255.3C462.86 256.01 462.26 255.81 461.88 255.71C456.78 254.31 451.56 254.56 446.51 255.36C436.36 256.98 426.42 259.61 416.62 262.76C412.34 264.13 408.86 266.31 405.75 269.44C398.96 276.29 392.73 283.68 385.17 289.78C380.42 293.61 380.67 296.1 385.22 300.22C387.02 301.86 389.15 302.77 391.51 302.94C394.31 303.14 397.1 303.09 399.92 302.37C406.93 300.59 413.18 297.14 419.56 293.95C422.53 292.46 425.49 291.16 428.87 290.6C431.51 290.16 434.24 290.4 436.76 289.66C441.3 288.33 445.21 289.51 449.13 291.72C455.73 295.43 461.4 300.28 466.73 305.56C475.37 314.12 483.97 322.71 492.57 331.31C494.1 332.84 495.6 334.4 497.02 336.03C498.9 338.18 500.36 340.6 501.13 343.37C502.17 347.11 501.07 350.24 498.24 352.82C495.47 355.35 492.39 355.64 488.99 354.23C486.34 353.12 483.99 351.57 481.78 349.81C476.04 345.26 470.42 340.56 465.22 335.39C462.51 332.69 459.91 329.88 457.22 327.15C456.8 326.72 456.26 326.12 455.52 326.72C454.81 327.3 454.41 328.05 455.04 328.86C456.35 330.57 457.59 332.39 459.15 333.86C467.11 341.42 475.02 349.04 484.19 355.2C488 357.76 488.72 361.99 486.09 365.48C483.09 369.46 477.09 370.77 472.73 368.18C470.61 366.92 468.59 365.38 466.76 363.71C461.23 358.66 455.82 353.48 450.37 348.34C449.52 347.55 448.71 346.7 447.84 345.92C447.21 345.36 446.46 344.83 445.73 345.73C445.13 346.47 445.34 347.31 445.89 348.01C446.3 348.53 446.79 348.99 447.28 349.45C453.17 355.08 458.7 361.1 465.08 366.23C466.12 367.06 467.14 367.93 468.06 368.89C469.82 370.75 469.79 372.14 468.08 374.13C466.95 375.43 465.54 376.43 463.92 376.76C459.91 377.58 455.95 377.64 452.58 374.71C447.93 370.68 443.25 366.68 438.68 362.56C436.36 360.46 433.98 358.43 432.59 355.42C431.53 353.12 429.07 352.23 426.73 352.32C425 352.38 424.56 352.23 424.4 350.42C423.64 342.15 414.61 336.35 407.31 342.46C407.19 342.56 407.01 342.56 406.73 342.66C406.45 341.72 406.17 340.78 405.87 339.85C402.89 330.72 394.53 327.96 386.44 333.33C383.78 335.1 381.75 337.56 379.05 339.62C378.54 338.87 378.83 338.45 378.94 337.97C380.37 332.17 378.14 327.29 372.85 324.79C370.47 323.67 368.06 323.32 365.89 325.31C361.83 329.04 357.95 332.94 355.27 337.82C350.97 345.65 356.55 355.73 365.35 356.12C368.06 356.23 368.06 356.23 368.46 359.02C369.54 366.59 375.76 371 383.06 369.22C384.75 368.8 385.42 369.01 385.65 370.87C386.4 376.89 390.76 379.89 395.66 382.35C397.23 383.14 398.93 383.05 400.56 382.74C403.06 382.27 405.1 380.83 407.03 379.23C408.91 381.07 410.17 383.44 412.5 384.92C418.31 388.6 424.28 388.04 430.04 385.3C432.18 384.27 433.6 384.21 435.39 385.4C436.08 385.86 436.87 386.19 437.65 386.46C444.71 388.9 449.41 387.14 452.8 381.78C453.91 380.02 454.96 379.63 456.78 379.93C458.09 380.15 459.44 380.15 460.77 380.13C465.78 380.06 469.95 378.45 472.03 373.49C472.63 372.05 473.44 371.96 474.74 372.18C483.64 373.67 489.95 369 490.44 360.33C490.57 358.1 491.56 357.98 493.23 357.99C497.03 358.01 499.79 356.16 502.04 353.18C504.8 349.5 505.08 345.59 503.63 341.4C503.08 339.78 503.23 338.72 505.09 337.86C515.8 332.92 526.41 327.76 537.12 322.8C544.52 319.37 552.29 316.93 560.21 315.09C572.73 312.18 585.54 311.5 598.3 311.3C609.08 311.13 619.88 311.79 630.66 312.69C636.12 313.14 641.61 313.56 647.03 314.24C657.05 315.49 667.03 317.16 677.02 318.7C691.27 320.91 705.46 323.51 719.8 325.2C730.53 326.46 741.25 327.64 752.04 327.84C771.84 328.2 791.63 328.41 811.37 326.11C819.61 325.15 827.84 324.09 835.97 322.5C850.47 319.65 864.66 315.58 878.39 310.04C882.54 308.36 886.68 306.63 890.8 304.87C891.55 304.55 892.34 303.99 891.84 302.99ZM358.56 349.2C356.06 345.3 356.15 341.3 358.79 337.58C361.38 333.91 364.57 330.74 367.92 327.75C368.57 327.17 369.28 326.83 370.18 326.96C373.22 327.41 376.78 331.86 376.53 335.38C376.47 335.61 376.31 336.25 376.11 336.88C374.65 341.32 372.67 345.54 370.12 349.43C366.84 354.44 361.84 354.28 358.56 349.2ZM377.06 366.21C373.47 364.49 371.26 361.06 371.35 356.44C371.67 351.97 374.23 347.93 377.78 344.56C380.9 341.59 384.35 338.98 387.67 336.22C389.65 334.58 391.92 333.94 394.52 333.71C400.3 333.2 405.28 341.24 402.51 346.09C401.68 347.54 400.97 349.04 399.78 350.23C395.2 354.8 390.64 359.4 386 363.92C383.5 366.35 380.73 367.96 377.06 366.21ZM406.29 375.31C405.06 377.15 403.22 378.29 401.34 379.37C400.1 380.07 398.72 380.23 397.49 379.76C393.99 378.42 391.13 376.22 389.35 372.85C388.08 370.46 388.3 368.04 389.54 365.71C389.93 364.99 390.45 364.32 391.01 363.72C396.48 357.95 401.95 352.18 407.46 346.45C409.2 344.64 411.14 343.1 412.7 343C418.66 342.89 422.74 348.89 421.08 353.66C420.59 355.09 419.79 356.35 418.69 357.39C415.4 360.51 413.13 364.36 410.86 368.21C409.43 370.63 407.86 372.97 406.29 375.31ZM430.28 369.72C429.4 373.43 428.24 377.06 428.64 380.95C428.76 382.07 428.27 382.7 427.21 383.21C421.6 385.85 414.61 384.16 411.18 379.29C409.91 377.5 409.68 375.9 410.95 373.87C414.2 368.68 417.08 363.26 421.46 358.83C423.37 356.9 425.2 354.81 428.17 355.79C431.27 356.81 431.24 359.74 431.42 362.41C431.44 362.74 431.42 363.07 431.42 363.62C431.73 365.63 430.76 367.65 430.28 369.72ZM449.6 381.25C447.85 383.55 445.53 384.55 442.94 384.2C438.77 384.27 435.7 382.39 432.83 380.05C431.68 379.11 431.38 377.95 431.74 376.51C432.07 375.24 432.21 373.92 432.52 372.64C433.24 369.61 434.02 366.6 434.77 363.58C437.64 364.93 439.36 367.62 441.73 369.57C444.28 371.67 446.79 373.83 449.21 376.07C451.08 377.8 451.12 379.25 449.6 381.25Z" fill="#690375"/>
</g>
<defs>
<clipPath id="clip0_4_4425">
<rect width="891.07" height="147.54" fill="white" transform="translate(0.929985 240)"/>
</clipPath>
</defs>
</svg>
